<?xml version="1.0" standalone="no"?>
<!DOCTYPE svg PUBLIC "-//W3C//DTD SVG 20010904//EN"
 "http://www.w3.org/TR/2001/REC-SVG-20010904/DTD/svg10.dtd">
<svg version="1.0" xmlns="http://www.w3.org/2000/svg"
 width="1628.000000pt" height="1170.000000pt" viewBox="0 0 1628.000000 1170.000000"
 preserveAspectRatio="xMidYMid meet">

<g transform="translate(0.000000,1170.000000) scale(0.100000,-0.100000)"
fill="#000000" stroke="none">
<path d="M6968 11613 c6 -2 18 -2 25 0 6 3 1 5 -13 5 -14 0 -19 -2 -12 -5z"/>
<path d="M7482 11595 c-21 -9 -38 -27 -48 -50 -20 -49 1 -100 51 -120 31 -14
39 -14 70 0 78 32 78 138 1 170 -41 18 -33 18 -74 0z m98 -85 l0 -40 -60 0
-60 0 0 40 0 40 60 0 60 0 0 -40z"/>
<path d="M7502 11500 c0 -14 2 -19 5 -12 2 6 2 18 0 25 -3 6 -5 1 -5 -13z"/>
<path d="M6808 11593 c7 -3 16 -2 19 1 4 3 -2 6 -13 5 -11 0 -14 -3 -6 -6z"/>
<path d="M6968 11573 c6 -2 18 -2 25 0 6 3 1 5 -13 5 -14 0 -19 -2 -12 -5z"/>
<path d="M6663 11563 c9 -2 23 -2 30 0 6 3 -1 5 -18 5 -16 0 -22 -2 -12 -5z"/>
<path d="M6863 11563 c9 -2 23 -2 30 0 6 3 -1 5 -18 5 -16 0 -22 -2 -12 -5z"/>
<path d="M6503 11553 c9 -2 23 -2 30 0 6 3 -1 5 -18 5 -16 0 -22 -2 -12 -5z"/>
<path d="M6968 11523 c6 -2 18 -2 25 0 6 3 1 5 -13 5 -14 0 -19 -2 -12 -5z"/>
<path d="M6673 11403 c9 -2 23 -2 30 0 6 3 -1 5 -18 5 -16 0 -22 -2 -12 -5z"/>
<path d="M8035 10771 c-63 -27 -81 -110 -33 -157 36 -37 99 -37 135 -1 35 35
36 99 2 133 -27 26 -74 38 -104 25z m65 -41 c0 -5 7 -10 15 -10 17 0 20 -16 4
-26 -6 -3 -9 -19 -5 -35 5 -29 5 -29 -44 -29 -49 0 -49 0 -44 29 4 16 1 32 -5
35 -21 13 -11 26 19 26 17 0 30 5 30 10 0 6 7 10 15 10 8 0 15 -4 15 -10z"/>
<path d="M8278 10693 c6 -2 18 -2 25 0 6 3 1 5 -13 5 -14 0 -19 -2 -12 -5z"/>
<path d="M8428 10673 c7 -3 16 -2 19 1 4 3 -2 6 -13 5 -11 0 -14 -3 -6 -6z"/>
<path d="M9228 10673 c7 -3 16 -2 19 1 4 3 -2 6 -13 5 -11 0 -14 -3 -6 -6z"/>
<path d="M8278 10653 c6 -2 18 -2 25 0 6 3 1 5 -13 5 -14 0 -19 -2 -12 -5z"/>
<path d="M8608 10643 c7 -3 16 -2 19 1 4 3 -2 6 -13 5 -11 0 -14 -3 -6 -6z"/>
<path d="M8808 10643 c7 -3 16 -2 19 1 4 3 -2 6 -13 5 -11 0 -14 -3 -6 -6z"/>
<path d="M9178 10643 c7 -3 16 -2 19 1 4 3 -2 6 -13 5 -11 0 -14 -3 -6 -6z"/>
<path d="M9408 10643 c7 -3 16 -2 19 1 4 3 -2 6 -13 5 -11 0 -14 -3 -6 -6z"/>
<path d="M8278 10603 c6 -2 18 -2 25 0 6 3 1 5 -13 5 -14 0 -19 -2 -12 -5z"/>
<path d="M9093 10603 c9 -2 23 -2 30 0 6 3 -1 5 -18 5 -16 0 -22 -2 -12 -5z"/>
<path d="M5865 8919 c-4 -6 -5 -12 -2 -15 2 -3 7 2 10 11 7 17 1 20 -8 4z"/>
<path d="M5906 8917 c3 -10 9 -15 12 -12 3 3 0 11 -7 18 -10 9 -11 8 -5 -6z"/>
<path d="M5913 8763 c9 -2 23 -2 30 0 6 3 -1 5 -18 5 -16 0 -22 -2 -12 -5z"/>
<path d="M5833 8740 c2 -11 20 -16 63 -18 32 -2 62 -9 67 -15 6 -8 7 -8 4 3
-2 11 -20 16 -63 18 -32 2 -62 9 -67 15 -6 8 -7 8 -4 -3z"/>
<path d="M5833 8700 c2 -10 17 -15 43 -16 37 -1 38 -1 4 3 -19 3 -39 10 -43
16 -6 8 -7 7 -4 -3z"/>
<path d="M5918 8543 c6 -2 18 -2 25 0 6 3 1 5 -13 5 -14 0 -19 -2 -12 -5z"/>
<path d="M5962 8510 c0 -19 2 -27 5 -17 2 9 2 25 0 35 -3 9 -5 1 -5 -18z"/>
<path d="M5842 8505 c0 -16 2 -22 5 -12 2 9 2 23 0 30 -3 6 -5 -1 -5 -18z"/>
<path d="M5925 8500 c-3 -5 -1 -10 4 -10 6 0 11 5 11 10 0 6 -2 10 -4 10 -3 0
-8 -4 -11 -10z"/>
<path d="M6006 8122 c-3 -5 8 -6 25 -4 16 2 29 6 29 8 0 8 -49 4 -54 -4z"/>
<path d="M6602 8053 c-1 -30 -7 -53 -14 -56 -10 -4 -10 -6 0 -6 18 -1 24 20
19 70 l-4 44 -1 -52z"/>
<path d="M6040 8080 c0 -5 5 -10 10 -10 6 0 10 5 10 10 0 6 -4 10 -10 10 -5 0
-10 -4 -10 -10z"/>
<path d="M6218 8083 c6 -2 18 -2 25 0 6 3 1 5 -13 5 -14 0 -19 -2 -12 -5z"/>
<path d="M6308 8083 c6 -2 18 -2 25 0 6 3 1 5 -13 5 -14 0 -19 -2 -12 -5z"/>
<path d="M6368 8083 c6 -2 18 -2 25 0 6 3 1 5 -13 5 -14 0 -19 -2 -12 -5z"/>
<path d="M6419 8073 c-12 -16 -12 -17 1 -7 8 7 24 14 35 17 19 4 19 5 -1 6
-12 0 -28 -7 -35 -16z"/>
<path d="M6286 8051 c-3 -4 6 -6 19 -3 14 2 25 6 25 8 0 8 -39 4 -44 -5z"/>
<path d="M6360 8015 c0 -10 -11 -15 -32 -16 -27 -1 -29 -3 -8 -6 13 -3 30 -12
36 -21 7 -10 16 -14 20 -9 4 4 2 7 -5 7 -9 0 -11 9 -6 30 4 17 4 30 1 30 -3 0
-6 -7 -6 -15z"/>
<path d="M6218 7993 c6 -2 18 -2 25 0 6 3 1 5 -13 5 -14 0 -19 -2 -12 -5z"/>
<path d="M6448 7993 c7 -3 16 -2 19 1 4 3 -2 6 -13 5 -11 0 -14 -3 -6 -6z"/>
<path d="M7851 7724 c0 -11 3 -14 6 -6 3 7 2 16 -1 19 -3 4 -6 -2 -5 -13z"/>
<path d="M7832 7690 c0 -14 2 -19 5 -12 2 6 2 18 0 25 -3 6 -5 1 -5 -13z"/>
<path d="M4258 7693 c7 -3 16 -2 19 1 4 3 -2 6 -13 5 -11 0 -14 -3 -6 -6z"/>
<path d="M4078 7673 c6 -2 18 -2 25 0 6 3 1 5 -13 5 -14 0 -19 -2 -12 -5z"/>
<path d="M7851 7654 c0 -11 3 -14 6 -6 3 7 2 16 -1 19 -3 4 -6 -2 -5 -13z"/>
<path d="M4353 7643 c9 -2 23 -2 30 0 6 3 -1 5 -18 5 -16 0 -22 -2 -12 -5z"/>
<path d="M3928 7603 c6 -2 18 -2 25 0 6 3 1 5 -13 5 -14 0 -19 -2 -12 -5z"/>
<path d="M4078 7603 c6 -2 18 -2 25 0 6 3 1 5 -13 5 -14 0 -19 -2 -12 -5z"/>
<path d="M4258 7603 c7 -3 16 -2 19 1 4 3 -2 6 -13 5 -11 0 -14 -3 -6 -6z"/>
<path d="M7761 7554 c0 -12 7 -28 17 -35 15 -12 16 -12 6 1 -7 8 -14 24 -17
35 -4 19 -5 19 -6 -1z"/>
<path d="M7851 7554 c0 -11 3 -14 6 -6 3 7 2 16 -1 19 -3 4 -6 -2 -5 -13z"/>
<path d="M7729 7457 c5 -5 30 -7 57 -5 l49 3 -57 5 c-31 3 -53 1 -49 -3z"/>
<path d="M7842 7375 c0 -16 2 -22 5 -12 2 9 2 23 0 30 -3 6 -5 -1 -5 -18z"/>
<path d="M7752 7370 c0 -14 2 -19 5 -12 2 6 2 18 0 25 -3 6 -5 1 -5 -13z"/>
<path d="M7780 7361 c0 -11 4 -22 9 -25 4 -3 6 6 3 19 -5 30 -12 33 -12 6z"/>
<path d="M7762 7290 c-18 -29 -15 -38 4 -12 9 13 14 25 12 27 -2 2 -9 -5 -16
-15z"/>
<path d="M7790 7304 c0 -5 7 -18 15 -28 8 -11 15 -16 15 -10 0 5 -7 18 -15 28
-8 11 -15 16 -15 10z"/>
<path d="M7722 7270 c0 -14 2 -19 5 -12 2 6 2 18 0 25 -3 6 -5 1 -5 -13z"/>
<path d="M7842 7270 c0 -14 2 -19 5 -12 2 6 2 18 0 25 -3 6 -5 1 -5 -13z"/>
<path d="M7778 7253 c7 -3 16 -2 19 1 4 3 -2 6 -13 5 -11 0 -14 -3 -6 -6z"/>
<path d="M6265 6419 c-4 -6 -5 -12 -2 -15 2 -3 7 2 10 11 7 17 1 20 -8 4z"/>
<path d="M6375 6250 c-16 -7 -17 -9 -3 -9 9 -1 20 4 23 9 7 11 7 11 -20 0z"/>
<path d="M6305 6230 c-13 -5 -14 -9 -5 -9 8 0 24 4 35 9 13 5 14 9 5 9 -8 0
-24 -4 -35 -9z"/>
<path d="M6451 6044 c0 -11 3 -14 6 -6 3 7 2 16 -1 19 -3 4 -6 -2 -5 -13z"/>
<path d="M6331 6004 c0 -11 3 -14 6 -6 3 7 2 16 -1 19 -3 4 -6 -2 -5 -13z"/>
<path d="M6370 6010 c0 -5 5 -10 10 -10 6 0 10 5 10 10 0 6 -4 10 -10 10 -5 0
-10 -4 -10 -10z"/>
<path d="M4 5939 c-3 -6 -1 -16 5 -22 8 -8 11 -5 11 11 0 24 -5 28 -16 11z"/>
<path d="M7159 5377 c-40 -27 -64 -83 -55 -130 3 -19 26 -60 51 -91 24 -32 50
-73 57 -92 6 -19 15 -34 18 -34 3 0 11 15 18 33 7 19 32 59 57 91 24 32 47 73
51 92 14 77 -49 154 -126 154 -22 0 -51 -9 -71 -23z"/>
<path d="M6363 4493 c9 -2 23 -2 30 0 6 3 -1 5 -18 5 -16 0 -22 -2 -12 -5z"/>
<path d="M7202 4485 c-21 -9 -38 -27 -48 -50 -20 -49 1 -100 51 -120 31 -14
39 -14 70 0 78 32 78 138 1 170 -41 18 -33 18 -74 0z m72 -57 c9 -17 16 -42
16 -55 0 -21 -4 -23 -50 -23 -46 0 -50 2 -50 23 0 37 29 87 50 87 11 0 25 -13
34 -32z"/>
<path d="M7230 4430 c0 -5 5 -10 10 -10 6 0 10 5 10 10 0 6 -4 10 -10 10 -5 0
-10 -4 -10 -10z"/>
<path d="M5763 4473 c9 -2 23 -2 30 0 6 3 -1 5 -18 5 -16 0 -22 -2 -12 -5z"/>
<path d="M6363 4453 c9 -2 23 -2 30 0 6 3 -1 5 -18 5 -16 0 -22 -2 -12 -5z"/>
<path d="M5613 4433 c9 -2 23 -2 30 0 6 3 -1 5 -18 5 -16 0 -22 -2 -12 -5z"/>
<path d="M6903 4433 c9 -2 23 -2 30 0 6 3 -1 5 -18 5 -16 0 -22 -2 -12 -5z"/>
<path d="M5763 4403 c9 -2 23 -2 30 0 6 3 -1 5 -18 5 -16 0 -22 -2 -12 -5z"/>
<path d="M6363 4403 c9 -2 23 -2 30 0 6 3 -1 5 -18 5 -16 0 -22 -2 -12 -5z"/>
<path d="M658 4343 c7 -3 16 -2 19 1 4 3 -2 6 -13 5 -11 0 -14 -3 -6 -6z"/>
<path d="M6293 4333 c9 -2 23 -2 30 0 6 3 -1 5 -18 5 -16 0 -22 -2 -12 -5z"/>
<path d="M658 4303 c6 -2 18 -2 25 0 6 3 1 5 -13 5 -14 0 -19 -2 -12 -5z"/>
<path d="M903 4293 c9 -2 23 -2 30 0 6 3 -1 5 -18 5 -16 0 -22 -2 -12 -5z"/>
<path d="M1068 4293 c7 -3 16 -2 19 1 4 3 -2 6 -13 5 -11 0 -14 -3 -6 -6z"/>
<path d="M1418 4293 c7 -3 16 -2 19 1 4 3 -2 6 -13 5 -11 0 -14 -3 -6 -6z"/>
<path d="M6388 4293 c7 -3 16 -2 19 1 4 3 -2 6 -13 5 -11 0 -14 -3 -6 -6z"/>
<path d="M6718 4293 c7 -3 16 -2 19 1 4 3 -2 6 -13 5 -11 0 -14 -3 -6 -6z"/>
<path d="M658 4253 c7 -3 16 -2 19 1 4 3 -2 6 -13 5 -11 0 -14 -3 -6 -6z"/>
<path d="M68 2413 c6 -2 18 -2 25 0 6 3 1 5 -13 5 -14 0 -19 -2 -12 -5z"/>
<path d="M4940 2000 c8 -5 20 -10 25 -10 6 0 3 5 -5 10 -8 5 -19 10 -25 10 -5
0 -3 -5 5 -10z"/>
<path d="M4927 1919 c7 -7 15 -10 18 -7 3 3 -2 9 -12 12 -14 6 -15 5 -6 -5z"/>
<path d="M4775 1829 c-4 -6 -5 -12 -2 -15 2 -3 7 2 10 11 7 17 1 20 -8 4z"/>
<path d="M4838 1783 c7 -3 16 -2 19 1 4 3 -2 6 -13 5 -11 0 -14 -3 -6 -6z"/>
<path d="M4191 337 c-13 -21 -12 -21 5 -5 10 10 16 20 13 22 -3 3 -11 -5 -18
-17z"/>
<path d="M303 310 c7 -20 14 -25 19 -17 11 17 10 29 -2 22 -5 -3 -10 1 -10 9
0 9 -4 16 -9 16 -5 0 -4 -13 2 -30z"/>
<path d="M393 299 c0 -29 3 -36 9 -25 7 12 13 13 33 4 33 -15 38 -8 24 30 -11
31 -29 44 -29 20 0 -9 -3 -9 -12 0 -20 20 -25 14 -25 -29z"/>
<path d="M510 330 c-2 -8 -2 -80 -1 -160 2 -135 1 -144 -14 -125 -9 11 -14 14
-10 7 8 -15 1 -15 -28 0 -57 29 -56 29 -55 -1 1 -15 -2 -32 -5 -38 -4 -5 15
-10 45 -12 33 -1 54 2 59 11 7 10 9 10 9 1 0 -10 42 -13 176 -13 l176 0 -7
123 c-4 67 -8 139 -9 160 -1 21 -8 42 -16 47 -8 5 -56 10 -105 10 l-90 0 -14
-31 c-11 -25 -11 -49 -3 -122 5 -51 7 -98 3 -106 -8 -14 -15 73 -16 192 l0 67
-37 0 c-37 0 -53 -20 -27 -35 5 -4 8 -19 5 -33 -4 -15 -8 -49 -11 -76 -7 -73
-13 -67 -14 14 0 44 3 69 9 65 13 -8 13 8 1 21 -5 5 -11 18 -14 29 -3 13 -6
15 -7 5z m30 -220 c0 -5 -4 -10 -10 -10 -5 0 -10 5 -10 10 0 6 5 10 10 10 6 0
10 -4 10 -10z m0 -36 c0 -8 -4 -12 -10 -9 -5 3 -10 10 -10 16 0 5 5 9 10 9 6
0 10 -7 10 -16z m77 -51 c-3 -10 -5 -5 -5 12 0 17 2 24 5 18 2 -7 2 -21 0 -30z"/>
<path d="M4130 320 c8 -5 20 -10 25 -10 6 0 3 5 -5 10 -8 5 -19 10 -25 10 -5
0 -3 -5 5 -10z"/>
<path d="M4060 309 c0 -5 2 -9 4 -9 2 0 20 -7 40 -15 20 -8 36 -12 36 -8 0 5
-18 16 -40 25 -22 9 -40 12 -40 7z"/>
<path d="M331 278 c-1 -9 3 -19 8 -22 5 -3 7 -16 3 -28 l-5 -22 23 22 c13 12
20 25 17 29 -4 3 -7 1 -7 -6 0 -15 -23 6 -33 29 -4 12 -6 12 -6 -2z"/>
<path d="M480 249 c12 -8 9 -9 -12 -5 -21 5 -28 3 -28 -9 0 -9 5 -13 10 -10 6
3 13 -1 16 -9 11 -28 34 -18 34 14 0 22 -5 30 -17 30 -16 0 -16 -2 -3 -11z"/>
<path d="M260 213 c0 -7 6 -13 14 -13 8 0 16 6 19 13 3 8 -3 13 -14 13 -11 0
-19 -6 -19 -13z"/>
<path d="M357 196 c-5 -15 -6 -31 -3 -34 8 -8 18 25 14 45 -3 13 -6 10 -11
-11z"/>
<path d="M400 192 c0 -9 7 -13 20 -9 13 3 20 0 20 -9 0 -8 4 -14 9 -14 5 0 7
9 4 19 -6 23 -53 35 -53 13z"/>
<path d="M290 190 c0 -5 -7 -10 -15 -10 -8 0 -14 -3 -14 -7 3 -21 -2 -26 -12
-13 -8 11 -9 8 -4 -15 3 -16 6 -43 6 -60 1 -29 1 -29 8 -5 4 14 13 24 18 23 6
-1 9 7 5 19 -4 16 -2 19 9 13 11 -7 11 -6 -1 9 -13 16 -12 18 5 16 33 -4 41 0
25 10 -13 8 -12 10 3 10 10 0 15 5 12 10 -3 6 -15 10 -26 10 -10 0 -19 -4 -19
-10z"/>
<path d="M480 170 c-9 -6 -10 -10 -3 -10 6 0 15 5 18 10 8 12 4 12 -15 0z"/>
<path d="M394 157 c-3 -10 -3 -27 2 -37 8 -18 11 -19 37 -6 15 8 27 11 27 6 0
-5 -8 -11 -18 -14 -10 -4 -19 -13 -19 -21 0 -11 11 -14 39 -13 24 1 38 6 38
15 0 7 -5 12 -11 11 -6 -2 -14 3 -17 11 -3 8 0 11 7 7 6 -4 11 -3 11 2 0 9
-42 28 -64 30 -5 0 -12 6 -17 13 -6 10 -9 9 -15 -4z"/>
<path d="M350 129 c0 -5 -4 -8 -9 -4 -5 3 -12 1 -15 -4 -8 -12 36 -23 47 -12
10 10 1 31 -14 31 -5 0 -9 -5 -9 -11z"/>
<path d="M4006 131 c-3 -5 2 -15 12 -22 15 -12 16 -12 5 2 -7 9 -10 19 -6 22
3 4 4 7 0 7 -3 0 -8 -4 -11 -9z"/>
<path d="M220 90 c0 -5 5 -10 10 -10 6 0 10 5 10 10 0 6 -4 10 -10 10 -5 0
-10 -4 -10 -10z"/>
<path d="M174 75 c-4 -8 -11 -12 -18 -8 -6 3 -6 1 2 -8 19 -21 14 -28 -18 -24
-24 3 -30 0 -30 -15 0 -17 7 -20 47 -20 37 0 44 3 35 12 -15 15 -16 32 -2 23
6 -3 10 -1 10 5 0 7 7 10 15 6 9 -3 15 0 15 10 0 8 -5 12 -10 9 -6 -3 -13 1
-16 9 -8 20 -23 21 -30 1z"/>
<path d="M273 55 c-6 -7 -9 -22 -6 -34 4 -17 13 -21 43 -21 34 0 38 2 33 22
-4 19 -3 20 7 8 9 -13 11 -12 8 4 -4 28 -23 30 -36 4 -9 -19 -11 -20 -11 -5
-1 10 -5 16 -10 12 -5 -3 -11 1 -13 9 -2 11 -5 12 -15 1z"/>
<path d="M240 23 c0 -13 5 -23 10 -23 13 0 13 11 0 30 -8 12 -10 11 -10 -7z"/>
</g>
</svg>
